<svg height="480pt" viewBox="0 0 480 480.31184" width="480pt" xmlns="http://www.w3.org/2000/svg"><path d="m391.0625 37.679688c-5.585938-24.972657-29.78125-41.167969-54.996094-36.820313-25.21875 4.351563-42.589844 27.714844-39.488281 53.117187-.367187 1.183594-.449219 2.433594-.242187 3.65625l5.039062 30.078126c1.90625 11.488281 2.859375 23.117187 2.847656 34.761718.011719 16.4375-1.851562 32.824219-5.550781 48.839844-2.0625 8.882812-4.738281 17.617188-8 26.136719l14.9375 5.726562c3.53125-9.207031 6.417969-18.648437 8.640625-28.257812.503906-2.183594.886719-4.40625 1.328125-6.605469h57.191406c2.371094 11.882812 5.738281 23.550781 10.0625 34.871094l14.9375-5.742188c-9.09375-23.945312-13.683593-49.359375-13.546875-74.96875-.007812-11.644531.941406-23.273437 2.847656-34.761718l5.042969-30.078126c.203125-1.214843.125-2.460937-.234375-3.640624.640625-5.445313.367188-10.957032-.816406-16.3125zm-67.277344-13.992188c8.542969-7.101562 20.160156-9.265625 30.6875-5.710938 10.527344 3.550782 18.457032 12.308594 20.953125 23.136719.976563 4.476563 1.019531 9.105469.125 13.597657-.242187 1.253906-.1875 2.542968.160157 3.769531l-4.4375 26.527343c-1.058594 6.3125-1.816407 12.753907-2.328126 19.246094h-49.464843c-.511719-6.492187-1.273438-12.933594-2.328125-19.199218l-4.441406-26.535157c.347656-1.203125.410156-2.472656.175781-3.703125-.417969-2.144531-.640625-4.320312-.664063-6.503906 0-9.519531 4.238282-18.542969 11.5625-24.625zm-5.546875 128.625c1.300781-9.894531 1.964844-19.863281 1.984375-29.839844 0-.722656-.078125-1.441406-.085937-2.160156h48.175781c0 .71875-.089844 1.4375-.089844 2.160156.003906 9.976563.640625 19.941406 1.90625 29.839844zm0 0"/><path d="m46.222656 480.3125h84c2.414063 0 4.699219-1.085938 6.21875-2.960938 6.179688-7.839843 11.472656-16.339843 15.78125-25.34375 4.3125 9.003907 9.605469 17.503907 15.785156 25.34375 1.519532 1.875 3.804688 2.960938 6.214844 2.960938h84v-16h-80.085937c-7.75-10.769531-13.945313-22.574219-18.402344-35.074219-10.65625-29.804687-15.910156-61.273437-15.511719-92.925781-.414062-31.738281 4.84375-63.292969 15.523438-93.183594 2.320312-6.355468 5.0625-12.550781 8.207031-18.546875 8.183594-15.710937 14.332031-32.398437 18.304687-49.664062.503907-2.183594.886719-4.40625 1.328126-6.605469h57.269531c3.527343 17.835938 9.320312 35.144531 17.242187 51.511719l14.398438-7.023438c-13.507813-28.1875-20.4375-59.074219-20.273438-90.328125-.007812-11.644531.941406-23.273437 2.847656-34.761718l5.042969-30.078126c.203125-1.214843.125-2.460937-.234375-3.640624.648438-5.445313.378906-10.957032-.796875-16.3125-5.515625-25.050782-29.757812-41.339844-55.035156-36.980469-25.28125 4.359375-42.664063 27.824219-39.46875 53.277343-.367187 1.183594-.449219 2.433594-.242187 3.65625l5.039062 30.078126c1.90625 11.488281 2.859375 23.117187 2.847656 34.761718.007813 16.425782-1.855468 32.796875-5.550781 48.800782-3.667969 15.945312-9.347656 31.359374-16.902344 45.871093-.570312 1.085938-1.015625 2.136719-1.546875 3.199219-.535156-1.078125-.984375-2.128906-1.550781-3.199219-14.96875-29.300781-22.667969-61.773437-22.449219-94.671875-.007812-11.644531.941406-23.273437 2.847656-34.761718l5.042969-30.078126c.203125-1.214843.125-2.460937-.234375-3.640624.648438-5.445313.378906-10.957032-.796875-16.3125-5.515625-25.050782-29.757812-41.339844-55.035156-36.980469-25.28125 4.359375-42.664063 27.824219-39.46875 53.277343-.367187 1.183594-.449219 2.433594-.242187 3.65625l5.039062 30.078126c1.90625 11.488281 2.859375 23.117187 2.847656 34.761718.007813 16.425782-1.855468 32.796875-5.550781 48.800782-3.664063 15.9375-9.34375 31.347656-16.894531 45.855468-17.738282 37.175782-26.492188 78-25.554688 119.183594 0 57.542969 14.875 110.269531 39.785156 141.03125 1.519532 1.875 3.804688 2.96875 6.214844 2.96875zm144-328c1.304688-9.894531 1.972656-19.863281 2-29.839844 0-.722656-.078125-1.441406-.085937-2.160156h48.175781c0 .71875-.089844 1.4375-.089844 2.160156.027344 9.976563.6875 19.945313 1.984375 29.839844zm5.546875-128.625c8.542969-7.109375 20.164063-9.277344 30.695313-5.726562 10.535156 3.554687 18.46875 12.316406 20.960937 23.152343.976563 4.476563 1.019531 9.105469.125 13.597657-.242187 1.253906-.1875 2.542968.160157 3.769531l-4.4375 26.527343c-1.058594 6.3125-1.816407 12.753907-2.328126 19.246094h-49.464843c-.511719-6.492187-1.273438-12.933594-2.328125-19.199218l-4.441406-26.535157c.347656-1.203125.410156-2.472656.175781-3.703125-.417969-2.144531-.640625-4.320312-.664063-6.503906 0-9.519531 4.238282-18.542969 11.5625-24.625zm-81.578125 128.625h-51.953125c1.300781-9.894531 1.964844-19.863281 1.984375-29.839844 0-.722656-.078125-1.441406-.085937-2.160156h48.175781c0 .71875-.089844 1.4375-.089844 2.160156.019532 9.976563.675782 19.945313 1.96875 29.839844zm-46.398437-128.625c8.542969-7.097656 20.15625-9.257812 30.679687-5.707031 10.527344 3.550781 18.457032 12.308593 20.953125 23.132812.976563 4.476563 1.019531 9.105469.125 13.597657-.242187 1.253906-.1875 2.542968.160157 3.769531l-4.4375 26.527343c-1.058594 6.3125-1.816407 12.753907-2.328126 19.246094h-49.464843c-.511719-6.492187-1.273438-12.933594-2.328125-19.199218l-4.441406-26.519532c.347656-1.203125.410156-2.472656.175781-3.703125-.417969-2.148437-.640625-4.332031-.664063-6.519531 0-9.519531 4.238282-18.542969 11.5625-24.625zm-27.839844 200.894531c8.183594-15.710937 14.332031-32.398437 18.304687-49.664062.503907-2.183594.886719-4.40625 1.328126-6.605469h57.277343c3.859375 19.578125 10.464844 38.515625 19.625 56.246094 2.695313 5.195312 5.097657 10.539062 7.199219 16-10.585938 30.800781-15.816406 63.1875-15.464844 95.753906-.339844 32.492188 4.886719 64.808594 15.457032 95.535156-4.324219 11.542969-10.164063 22.460938-17.367188 32.464844h-76.175781c-20.984375-28.128906-33.914063-76.664062-33.914063-128-.804687-38.574219 7.316406-76.8125 23.730469-111.730469zm0 0"/><path d="m68.34375 239.359375-14.175781-7.40625c-2.175781 4.167969-4.238281 8.671875-6.128907 13.382813l14.847657 5.953124c1.621093-4.066406 3.441406-8.046874 5.457031-11.929687zm0 0"/><path d="m48.222656 336.3125c-.160156-23.574219 3.003906-47.054688 9.402344-69.746094l-15.351562-4.511718c-6.824219 24.15625-10.207032 49.15625-10.050782 74.257812-.242187 25.113281 3.136719 50.128906 10.035156 74.28125l15.335938-4.5625c-6.460938-22.667969-9.613281-46.148438-9.371094-69.71875zm0 0"/><path d="m196.34375 239.359375-14.175781-7.40625c-2.175781 4.167969-4.238281 8.671875-6.128907 13.382813l14.847657 5.953124c1.621093-4.066406 3.441406-8.046874 5.457031-11.929687zm0 0"/><path d="m170.273438 262.054688c-6.824219 24.15625-10.207032 49.15625-10.050782 74.257812-.242187 25.113281 3.136719 50.128906 10.035156 74.28125l15.335938-4.5625c-6.460938-22.667969-9.613281-46.148438-9.371094-69.71875-.160156-23.574219 3.003906-47.054688 9.402344-69.746094zm0 0"/><path d="m245.519531 250.75c-37.375 39.429688-47.695312 97.320312-26.253906 147.238281s70.535156 82.285157 124.863281 82.324219c1.238282 0 2.488282 0 3.734375-.046875 61.53125-1.648437 114.285157-44.417969 128.621094-104.28125s-13.324219-121.886719-67.433594-151.226563c-54.113281-29.339843-121.183593-18.679687-163.53125 25.992188zm98.792969-26.4375c65.800781.90625 118.539062 54.742188 118.085938 120.546875-.453126 65.804687-53.925782 118.914063-119.734376 118.914063-65.804687 0-119.28125-53.109376-119.734374-118.914063-.453126-65.804687 52.285156-119.640625 118.085937-120.546875zm0 0"/><path d="m314.96875 264.054688-5.488281-15.03125c-6.042969 2.207031-11.859375 4.980468-17.375 8.289062l8.238281 13.71875c4.640625-2.785156 9.539062-5.121094 14.625-6.976562zm0 0"/><path d="m258.855469 346.59375c-.632813-24.339844 9.136719-47.789062 26.855469-64.480469l-10.976563-11.648437c-21.035156 19.820312-32.628906 47.664062-31.871094 76.558594zm0 0"/><path d="m304.222656 312.3125c0 13.253906 10.746094 24 24 24 13.257813 0 24-10.746094 24-24s-10.742187-24-24-24c-13.253906 0-24 10.746094-24 24zm24-8c4.417969 0 8 3.582031 8 8s-3.582031 8-8 8c-4.417968 0-8-3.582031-8-8s3.582032-8 8-8zm0 0"/><path d="m392.222656 336.3125c13.257813 0 24-10.746094 24-24s-10.742187-24-24-24c-13.253906 0-24 10.746094-24 24s10.746094 24 24 24zm0-32c4.417969 0 8 3.582031 8 8s-3.582031 8-8 8c-4.417968 0-8-3.582031-8-8s3.582032-8 8-8zm0 0"/><path d="m336.222656 408.3125c0 13.253906 10.746094 24 24 24 13.257813 0 24-10.746094 24-24s-10.742187-24-24-24c-13.253906 0-24 10.746094-24 24zm24-8c4.417969 0 8 3.582031 8 8s-3.582031 8-8 8c-4.417968 0-8-3.582031-8-8s3.582032-8 8-8zm0 0"/></svg>